<?xml version="1.0" encoding="UTF-8" standalone="no"?>
<!-- Generator: Adobe Illustrator 24.1.0, SVG Export Plug-In . SVG Version: 6.00 Build 0)  -->

<svg
   version="1.1"
   id="Layer_1"
   x="0px"
   y="0px"
   viewBox="0 0 114.59 78.760132"
   xml:space="preserve"
   sodipodi:docname="418f104117bc385030eaa46ba49d16c3.svg"
   width="114.59"
   height="78.760132"
   xmlns:inkscape="http://www.inkscape.org/namespaces/inkscape"
   xmlns:sodipodi="http://sodipodi.sourceforge.net/DTD/sodipodi-0.dtd"
   xmlns="http://www.w3.org/2000/svg"
   xmlns:svg="http://www.w3.org/2000/svg"><defs
   id="defs61" /><sodipodi:namedview
   id="namedview59"
   pagecolor="#ffffff"
   bordercolor="#666666"
   borderopacity="1.0"
   inkscape:pageshadow="2"
   inkscape:pageopacity="0.0"
   inkscape:pagecheckerboard="0" />
<style
   type="text/css"
   id="style2">
	.st0{clip-path:url(#SVGID_4_);}
	.st1{fill:#005228;}
	.st2{clip-path:url(#SVGID_6_);}
	.st3{fill:#50B848;}
	.st4{fill:#4AA147;}
	.st5{clip-path:url(#SVGID_8_);}
	.st6{fill:#C09C6E;}
</style>
<g
   id="g56"
   transform="translate(-2.45,0.05012931)">
	<path
   d="m 20.18,44.17 v 18.5 c -1.17,-0.1 -2.11,-1 -2.27,-2.15 0,-0.04 -0.01,-0.09 -0.01,-0.14 0,-0.07 -0.01,-0.14 -0.01,-0.21 V 54.58 L 4.74,54.57 v 5.7 c 0,0.04 0,0.07 0,0.11 0,0.05 -0.01,0.1 -0.01,0.14 -0.16,1.15 -1.1,2.05 -2.27,2.15 V 44.18 c 0.01,0 0.02,0 0.04,0 0.99,0.1 1.81,0.78 2.12,1.69 0.06,0.18 0.1,0.37 0.12,0.56 0,0.08 0.01,0.16 0.01,0.25 v 5.59 H 17.9 v -5.69 c 0.03,-1.27 1.02,-2.3 2.28,-2.41 z"
   id="path4" />
	<path
   d="m 17.01,78.71 c -0.94,0 -1.71,-0.3 -2.32,-0.91 -0.61,-0.6 -0.92,-1.37 -0.92,-2.3 0,-0.93 0.31,-1.7 0.92,-2.31 0.61,-0.61 1.39,-0.91 2.32,-0.91 0.94,0 1.71,0.3 2.33,0.91 0.62,0.61 0.92,1.37 0.92,2.3 0,0.93 -0.31,1.7 -0.92,2.3 -0.61,0.62 -1.38,0.92 -2.33,0.92 z m 0,-0.72 c 0.7,0 1.28,-0.23 1.75,-0.7 0.46,-0.47 0.69,-1.07 0.69,-1.79 0,-0.73 -0.23,-1.32 -0.69,-1.79 -0.46,-0.47 -1.04,-0.7 -1.75,-0.7 -0.7,0 -1.28,0.24 -1.75,0.71 -0.46,0.47 -0.69,1.07 -0.69,1.79 0,0.72 0.23,1.32 0.69,1.79 0.47,0.46 1.05,0.69 1.75,0.69 z"
   id="path6" />
	<path
   d="m 26.67,78.71 v -5.42 h -2.63 v -0.7 h 6.05 v 0.7 h -2.64 v 5.42 z"
   id="path8" />
	<path
   d="m 32.79,78.71 3.07,-6.13 h 0.65 l 3.1,6.13 h -0.84 l -0.85,-1.65 h -3.46 l -0.83,1.65 z m 2.02,-2.37 h 2.75 l -1.38,-2.71 z"
   id="path10" />
	<path
   d="m 44.51,78.71 v -6.13 h 0.41 l 4.06,4.58 v -4.58 h 0.78 v 6.13 h -0.4 l -4.08,-4.58 v 4.58 z"
   id="path12" />
	<path
   d="m 55.58,78.71 v -6.16 h 0.79 v 6.16 z"
   id="path14" />
	<path
   d="m 67.19,76.59 0.62,0.46 c -0.29,0.53 -0.68,0.94 -1.18,1.23 -0.5,0.29 -1.07,0.43 -1.7,0.43 -0.94,0 -1.71,-0.3 -2.32,-0.91 -0.61,-0.6 -0.92,-1.37 -0.92,-2.3 0,-0.93 0.31,-1.7 0.92,-2.31 0.61,-0.61 1.39,-0.91 2.32,-0.91 0.58,0 1.11,0.12 1.58,0.37 0.48,0.25 0.86,0.6 1.16,1.06 l -0.65,0.46 C 66.82,73.8 66.54,73.52 66.17,73.31 65.81,73.11 65.39,73 64.94,73 c -0.7,0 -1.28,0.24 -1.75,0.71 -0.46,0.47 -0.69,1.07 -0.69,1.79 0,0.72 0.23,1.32 0.69,1.79 0.46,0.47 1.04,0.7 1.75,0.7 0.49,0 0.93,-0.12 1.31,-0.36 0.38,-0.23 0.69,-0.58 0.94,-1.04 z"
   id="path16" />
	<path
   d="m 72.22,78.71 3.07,-6.13 h 0.65 l 3.1,6.13 H 78.2 l -0.85,-1.65 h -3.46 l -0.83,1.65 z m 2.01,-2.37 h 2.75 L 75.6,73.63 Z"
   id="path18" />
	<path
   d="m 83.93,78.71 v -6.13 h 0.78 V 78 h 4.09 v 0.7 h -4.87 z"
   id="path20" />
	<path
   d="m 93.19,77.62 0.45,-0.66 c 0.44,0.34 0.9,0.59 1.38,0.77 0.48,0.18 0.96,0.27 1.43,0.27 0.58,0 1.05,-0.12 1.41,-0.36 0.36,-0.24 0.54,-0.55 0.54,-0.93 0,-0.3 -0.13,-0.55 -0.39,-0.74 -0.26,-0.19 -0.62,-0.31 -1.07,-0.35 -0.11,-0.01 -0.27,-0.02 -0.48,-0.03 -1.03,-0.07 -1.73,-0.19 -2.1,-0.36 -0.29,-0.14 -0.51,-0.31 -0.66,-0.53 -0.15,-0.22 -0.23,-0.46 -0.23,-0.73 0,-0.49 0.22,-0.9 0.67,-1.22 0.45,-0.32 1.03,-0.48 1.75,-0.48 0.52,0 1.04,0.08 1.54,0.25 0.51,0.17 0.99,0.42 1.45,0.75 L 98.43,73.9 C 98.04,73.6 97.64,73.37 97.21,73.21 96.79,73.08 96.35,73 95.9,73 c -0.47,0 -0.86,0.09 -1.17,0.27 -0.31,0.18 -0.46,0.4 -0.46,0.67 0,0.11 0.02,0.21 0.07,0.29 0.05,0.09 0.12,0.17 0.23,0.25 0.26,0.19 0.81,0.31 1.67,0.36 0.39,0.02 0.7,0.05 0.91,0.07 0.64,0.07 1.14,0.27 1.51,0.6 0.37,0.33 0.56,0.73 0.56,1.22 0,0.57 -0.25,1.05 -0.76,1.41 -0.51,0.37 -1.17,0.56 -2,0.56 -0.62,0 -1.2,-0.09 -1.74,-0.27 -0.54,-0.17 -1.04,-0.44 -1.53,-0.81 z"
   id="path22" />
	<path
   d="m 7.78,75.74 c 0.42,-0.31 0.69,-0.88 0.69,-1.42 0,-0.94 -0.81,-1.71 -1.8,-1.71 h -4.2 v 2.76 0.73 2.6 h 4.2 c 1,0 1.8,-0.77 1.8,-1.71 0,-0.53 -0.27,-0.94 -0.69,-1.25 z m -4.54,-2.4 h 3.43 c 0.57,0 1.03,0.44 1.03,0.97 0,0.54 -0.46,1.05 -1.03,1.05 H 3.24 Z m 3.43,4.63 H 3.24 v -1.89 h 3.43 c 0.57,0 1.03,0.38 1.03,0.92 -0.01,0.54 -0.47,0.97 -1.03,0.97 z"
   id="path24" />
	
		<rect
   x="50.630001"
   y="19.110001"
   transform="rotate(90,50.8399,67.4864)"
   class="st3"
   width="0.41999999"
   height="96.75"
   id="rect26" />
	<path
   d="m 77.87,21.23 v 18.33 c -0.25,-0.02 -0.49,-0.08 -0.73,-0.18 -0.01,0 -0.03,-0.01 -0.04,-0.02 -0.09,-0.03 -0.18,-0.08 -0.27,-0.14 -0.4,-0.24 -0.72,-0.56 -0.93,-0.94 -0.02,-0.05 -0.05,-0.1 -0.07,-0.14 -0.16,-0.34 -0.25,-0.71 -0.25,-1.09 V 25.69 L 75.41,25.94 68.2,36.61 61,25.98 60.81,25.7 v 11.36 c 0,0.43 -0.11,0.87 -0.34,1.27 -0.29,0.51 -0.74,0.87 -1.24,1.07 -0.22,0.09 -0.46,0.14 -0.69,0.17 V 21.23 c 0.23,-0.08 0.46,-0.11 0.72,-0.11 0.87,0 1.62,0.44 2.08,1.1 v 0 c 0,0 0,0 0,0.01 L 68.2,32.53 75,22.39 c 0.01,-0.02 0.03,-0.04 0.04,-0.07 l 0.09,-0.13 c 0,0 0,0 0,0 0.45,-0.63 1.17,-1.04 1.99,-1.06 0.02,0 0.04,0 0.06,0 0.02,0 0.04,0 0.06,0 0.22,0.01 0.43,0.04 0.63,0.1 z"
   id="path28" />
	<path
   class="st4"
   d="m 117.04,12.68 c 0,-0.17 -0.01,-0.35 -0.01,-0.52 -0.02,-0.46 -0.05,-0.89 -0.09,-1.32 l -0.02,-0.13 C 116.84,9.88 116.75,9.19 116.63,8.52 116.16,5.9 115.32,3.38 114.12,1.01 L 113.86,0.5 113.3,0.4 c -3.19,-0.59 -6.44,-0.6 -9.65,-0.03 -7.1,1.27 -13.3,5.23 -17.45,11.17 -4.15,5.94 -5.73,13.12 -4.47,20.24 0.47,2.62 1.31,5.14 2.51,7.51 l 0.23,0.45 0.05,0.06 v 0 c 0.41,0.76 0.8,1.44 1.21,2.05 l 0.15,0.22 0.06,-0.26 c 0.27,-1.09 0.63,-2.19 1.06,-3.26 l 0.08,-0.19 c 1.09,-2.64 2.6,-5.05 4.5,-7.17 0.07,0.26 0.16,0.53 0.25,0.83 l 0.04,0.12 c 0.04,0.13 0.09,0.26 0.14,0.39 l 0.09,0.24 c 0.04,0.11 0.08,0.21 0.12,0.31 0.05,0.12 0.09,0.23 0.14,0.35 l 0.09,0.21 c 0.88,2.02 2.11,3.83 3.65,5.4 l 0.47,0.48 0.65,-0.18 c 10.71,-2.97 18.43,-12.02 19.65,-23.06 l 0.02,-0.18 c 0.06,-0.63 0.11,-1.19 0.13,-1.71 0,-0.07 0,-0.14 0,-0.21 v -0.15 c 0.01,-0.41 0.01,-0.83 0,-1.24 z m -2.45,3.52 c -0.28,2.33 -0.89,4.61 -1.83,6.78 l -0.02,0.1 c -2.88,6.68 -8.51,11.73 -15.45,13.86 -1.32,-1.47 -2.35,-3.14 -3.04,-4.98 -0.32,-0.86 -0.57,-1.76 -0.74,-2.66 2.75,-2.47 5.96,-4.25 9.52,-5.3 l 0.05,-0.02 1.17,-2.66 -0.23,0.05 c -3.98,0.9 -7.61,2.63 -10.79,5.15 0,-0.17 0,-0.33 0,-0.5 0,-0.07 0.01,-0.15 0.01,-0.22 l 0.01,-0.21 c 0,-0.1 0.01,-0.21 0.02,-0.31 0.01,-0.09 0.02,-0.18 0.03,-0.28 l 0.01,-0.14 c 0.01,-0.11 0.02,-0.21 0.03,-0.32 0.01,-0.12 0.03,-0.25 0.05,-0.37 0.02,-0.12 0.03,-0.24 0.05,-0.35 0.02,-0.13 0.04,-0.25 0.07,-0.37 0.02,-0.12 0.05,-0.23 0.07,-0.35 0.03,-0.12 0.06,-0.25 0.08,-0.37 0.03,-0.11 0.06,-0.23 0.09,-0.34 0.03,-0.12 0.07,-0.25 0.1,-0.37 0.03,-0.11 0.07,-0.22 0.1,-0.33 l 0.01,-0.03 c 0.04,-0.11 0.07,-0.22 0.11,-0.33 0.03,-0.09 0.07,-0.19 0.1,-0.28 l 0.04,-0.11 c 0.04,-0.1 0.07,-0.19 0.11,-0.29 0.03,-0.07 0.06,-0.15 0.09,-0.22 l 0.09,-0.2 c 0.03,-0.08 0.07,-0.16 0.1,-0.24 0.03,-0.07 0.06,-0.14 0.1,-0.2 l 0.05,-0.11 c 0.1,-0.21 0.21,-0.43 0.32,-0.64 l 0.05,-0.1 c 0.04,-0.07 0.08,-0.14 0.12,-0.22 0.05,-0.08 0.1,-0.17 0.15,-0.25 l 0.07,-0.12 c 0.05,-0.09 0.1,-0.17 0.15,-0.26 0.05,-0.08 0.1,-0.16 0.16,-0.24 l 0.06,-0.09 c 0.06,-0.09 0.12,-0.18 0.18,-0.27 0.07,-0.1 0.14,-0.2 0.21,-0.3 0.07,-0.1 0.14,-0.19 0.21,-0.29 0.07,-0.1 0.15,-0.19 0.22,-0.29 0.08,-0.09 0.15,-0.19 0.23,-0.28 0.08,-0.09 0.15,-0.18 0.23,-0.27 0.08,-0.09 0.16,-0.19 0.25,-0.28 0.08,-0.09 0.16,-0.17 0.24,-0.26 0.09,-0.09 0.18,-0.18 0.27,-0.27 l 0.06,-0.06 c 0.06,-0.06 0.12,-0.12 0.18,-0.18 0.09,-0.09 0.18,-0.17 0.3,-0.27 l 0.07,-0.07 c 0.05,-0.05 0.11,-0.1 0.17,-0.15 0.11,-0.09 0.22,-0.18 0.33,-0.28 l 0.11,-0.09 c 0.04,-0.03 0.08,-0.07 0.12,-0.1 0.19,-0.15 0.38,-0.29 0.57,-0.43 0.04,-0.03 0.09,-0.06 0.13,-0.09 l 0.08,-0.05 c 0.13,-0.09 0.26,-0.18 0.4,-0.27 0.06,-0.04 0.12,-0.08 0.18,-0.11 l 0.08,-0.05 c 0.12,-0.08 0.24,-0.15 0.36,-0.22 0.08,-0.04 0.15,-0.09 0.23,-0.13 l 0.05,-0.03 c 0.12,-0.07 0.25,-0.14 0.37,-0.2 0.09,-0.05 0.19,-0.1 0.29,-0.15 0.13,-0.06 0.25,-0.12 0.38,-0.18 0.1,-0.05 0.2,-0.09 0.3,-0.14 0.13,-0.06 0.26,-0.11 0.39,-0.17 0.1,-0.04 0.2,-0.08 0.3,-0.12 0.14,-0.05 0.27,-0.1 0.41,-0.15 l 0.04,-0.01 c 0.09,-0.03 0.17,-0.06 0.26,-0.09 0.14,-0.05 0.29,-0.09 0.44,-0.14 l 0.1,-0.03 c 0.06,-0.02 0.13,-0.04 0.19,-0.06 0.16,-0.05 0.33,-0.09 0.5,-0.13 l 0.11,-0.03 c 0.05,-0.01 0.09,-0.02 0.14,-0.03 0.25,-0.06 0.5,-0.11 0.76,-0.15 0.85,-0.15 1.73,-0.23 2.63,-0.24 h 0.08 l 1,-2.27 -0.17,-0.01 c -1.32,-0.06 -2.65,0.03 -3.94,0.26 -0.27,0.05 -0.56,0.11 -0.85,0.17 l -0.04,0.01 c -0.26,0.06 -0.52,0.13 -0.8,0.2 l -0.06,0.02 c -0.26,0.07 -0.51,0.15 -0.77,0.24 l -0.08,0.03 c -0.25,0.08 -0.5,0.17 -0.74,0.27 L 102.4,9.6 c -0.24,0.09 -0.48,0.19 -0.71,0.3 l -0.09,0.04 c -0.23,0.11 -0.47,0.22 -0.71,0.34 l -0.06,0.03 c -0.23,0.12 -0.46,0.24 -0.68,0.36 l -0.07,0.04 c -0.23,0.13 -0.45,0.26 -0.67,0.4 l -0.06,0.04 c -0.22,0.14 -0.44,0.29 -0.66,0.44 l -0.04,0.03 c -0.22,0.15 -0.44,0.31 -0.67,0.49 -4.99,3.85 -7.64,10.11 -6.93,16.34 -2.33,2.29 -4.22,4.96 -5.6,7.94 C 84.78,34.75 84.29,33.07 83.99,31.38 81.6,17.92 90.6,5.02 104.06,2.63 c 2.75,-0.49 5.53,-0.51 8.28,-0.07 0.96,2.02 1.65,4.16 2.04,6.36 0.19,1.09 0.31,2.23 0.36,3.41 0.01,0.19 0.01,0.38 0.01,0.57 0.01,0.57 0,1.03 -0.01,1.45 l -0.01,0.2 c -0.03,0.59 -0.08,1.12 -0.14,1.62 z M 98.72,11.71 v 0 0 0 0 z"
   id="path30" />
	<g
   id="g34">
		<path
   d="m 25.92,46.47 v 5.81 c 0,0 4.6,0 7.99,0 h 0.02 c 0.03,0 0.08,0 0.11,0 1.21,0.05 2.19,0.96 2.36,2.14 0.01,0.05 0.01,0.1 0.02,0.15 v 0 h -10.5 v 5.81 h 10.33 c 0.05,0 0.1,0 0.15,0.01 1.16,0.12 2.09,1.05 2.25,2.19 0,0.03 0.01,0.07 0.01,0.1 H 23.62 V 44.17 h 15.1 c 0,0.05 -0.01,0.1 -0.01,0.14 -0.17,1.22 -1.22,2.16 -2.49,2.16 z"
   id="path32" />
	</g>
	<g
   id="g38">
		<path
   d="m 58.42,47.05 c -0.85,-1.71 -2.61,-2.88 -4.65,-2.88 h -11.6 v 0 10.4 8.11 c 0.03,0 0.17,-0.02 0.19,-0.02 1.19,-0.2 2.1,-1.23 2.1,-2.48 v -5.61 h 7.96 l 1.6,3.31 1.7,3.37 c 0.02,0.05 0.05,0.1 0.07,0.14 0.21,0.38 0.53,0.7 0.93,0.94 0.09,0.05 0.18,0.1 0.27,0.14 0.01,0.01 0.02,0.01 0.04,0.02 0.62,0.25 1.29,0.24 1.88,0.01 l -2.25,-4.48 -1.8,-3.57 c 1.9,-0.41 3.41,-1.85 3.92,-3.72 0.01,-0.03 0.01,-0.05 0.02,-0.08 0.03,-0.11 0.06,-0.23 0.08,-0.34 0.01,-0.07 0.02,-0.14 0.03,-0.22 0.01,-0.08 0.02,-0.16 0.03,-0.24 0.02,-0.16 0.03,-0.33 0.03,-0.49 0,-0.82 -0.2,-1.61 -0.55,-2.31 z m -4.66,5.23 h -9.3 v -5.82 h 9.3 c 1.61,0 2.91,1.3 2.91,2.91 0,1.61 -1.3,2.91 -2.91,2.91 z"
   id="path36" />
	</g>
	<path
   d="m 79.21,49.38 v 0 c 0,-2.87 -2.33,-5.2 -5.2,-5.2 h -11.6 v 8.11 2.29 8.11 h 11.6 c 2.87,0 5.2,-2.33 5.2,-5.2 0,-1.64 -0.76,-3.1 -1.95,-4.06 1.19,-0.95 1.95,-2.41 1.95,-4.05 z m -2.29,8.11 c 0,1.61 -1.3,2.91 -2.91,2.91 H 64.7 v -5.82 h 9.31 c 1.6,0 2.91,1.3 2.91,2.91 z M 74.01,52.28 H 64.7 v -5.82 h 9.31 c 1.61,0 2.91,1.3 2.91,2.91 0,1.61 -1.3,2.91 -2.91,2.91 0,0 0,0 0,0 z"
   id="path40" />
	<g
   id="g46">
		<polygon
   points=""
   id="polygon42" />
		<path
   d="m 99.04,57.52 c 0,1.73 -1,3.31 -2.68,4.22 -3.03,1.66 -6.62,1.07 -9.39,0.1 -2.5,-0.87 -4.34,-2.04 -4.5,-2.15 l 0.01,-0.01 v 0 c 0.05,-0.08 0.11,-0.15 0.17,-0.22 0.01,-0.01 0.02,-0.02 0.03,-0.03 0.46,-0.53 1.13,-0.85 1.89,-0.85 0.35,0 0.68,0.07 0.98,0.2 0.03,0.01 0.07,0.03 0.1,0.04 0,0 0.01,0.01 0.02,0.01 2.4,1.14 6.52,2.58 9.58,0.9 0.94,-0.51 1.48,-1.32 1.48,-2.2 0,-0.84 -0.47,-1.61 -1.26,-2.04 -0.84,-0.47 -2.32,-0.71 -3.89,-0.86 -0.56,-0.03 -1.09,-0.07 -1.6,-0.12 -0.04,0 -0.08,0 -0.13,-0.01 -2.02,-0.19 -3.63,-0.5 -4.76,-1.13 -1.51,-0.83 -2.46,-2.39 -2.45,-4.06 0,-1.72 1,-3.3 2.68,-4.22 3.03,-1.66 6.62,-1.07 9.39,-0.1 2.51,0.87 4.34,2.04 4.5,2.15 -0.45,0.68 -1.22,1.13 -2.1,1.13 -0.35,0 -0.67,-0.07 -0.98,-0.2 0,0 -0.01,0 -0.01,0 -2.38,-1.15 -6.59,-2.66 -9.7,-0.95 -0.94,0.51 -1.48,1.32 -1.48,2.2 0,0.84 0.47,1.61 1.26,2.04 0.84,0.47 2.32,0.71 3.89,0.85 0.56,0.04 1.09,0.08 1.6,0.13 0.04,0 0.08,0 0.13,0.01 2.02,0.19 3.63,0.5 4.76,1.13 1.52,0.81 2.46,2.37 2.46,4.04 z"
   id="path44" />
	</g>
	<g
   id="g50">
		<path
   d="m 54.54,24 c -0.85,-1.71 -2.61,-2.88 -4.65,-2.88 h -11.6 v 18.44 c 0.03,0 0.06,0 0.09,-0.01 0.01,0 0.03,0 0.04,0 1.22,-0.17 2.16,-1.22 2.16,-2.49 v -5.54 h 7.96 l 1.6,3.31 1.67,3.31 c 0.02,0.05 0.05,0.1 0.07,0.14 0.21,0.38 0.53,0.7 0.93,0.94 0.09,0.05 0.18,0.1 0.27,0.13 0.01,0.01 0.02,0.01 0.04,0.02 0.62,0.25 1.29,0.24 1.88,0.01 L 52.78,34.96 52.75,34.9 50.98,31.39 c 1.9,-0.41 3.41,-1.86 3.92,-3.72 0,-0.02 0.01,-0.05 0.02,-0.08 0.03,-0.11 0.06,-0.23 0.08,-0.34 0.01,-0.07 0.02,-0.14 0.03,-0.22 0.01,-0.08 0.02,-0.16 0.03,-0.24 0.01,-0.16 0.02,-0.33 0.02,-0.5 0.01,-0.8 -0.19,-1.59 -0.54,-2.29 z m -4.65,5.23 h -9.3 v -5.81 h 9.3 c 1.61,0 2.91,1.3 2.91,2.91 0,1.61 -1.31,2.9 -2.91,2.9 z"
   id="path48" />
	</g>
	<path
   d="m 32.62,34.9 -0.55,-1.11 -1.13,-2.3 -4.45,-8.96 -0.07,-0.13 c -0.11,-0.2 -0.24,-0.38 -0.4,-0.54 -0.44,-0.47 -1.06,-0.76 -1.75,-0.77 -0.02,0 -0.04,0 -0.06,0 -0.02,0 -0.04,0 -0.06,0 -0.11,0 -0.2,0.01 -0.31,0.02 l -0.3,0.61 -1.53,3.08 -3.32,6.69 -1.14,2.3 -0.55,1.11 -2.22,4.48 c 0.28,0.11 0.59,0.17 0.92,0.17 0.08,0 0.15,0 0.22,-0.01 0.03,0 0.06,0 0.09,-0.01 0.01,0 0.03,0 0.04,0 0.19,-0.03 0.38,-0.08 0.56,-0.15 0.53,-0.2 0.97,-0.58 1.26,-1.06 l 0.03,-0.05 0.09,-0.19 2.13,-4.29 h 9.41 l 2.21,4.45 c 0.43,0.79 1.26,1.32 2.21,1.32 0.08,0 0.15,0 0.22,-0.01 0.03,0 0.06,0 0.09,-0.01 0.01,0 0.03,0 0.04,0 0.19,-0.03 0.38,-0.08 0.56,-0.15 z m -11.37,-3.4 2.68,-5.41 0.89,-1.78 0.71,1.43 2.85,5.76 z"
   id="path52" />
	<path
   d="m 17.55,21.09 c 0,0.05 -0.01,0.1 -0.01,0.14 -0.17,1.22 -1.22,2.16 -2.49,2.16 H 4.75 v 5.81 c 0,0 4.48,0 7.86,0 0,0 0.3,0 0.38,0.01 1.11,0.13 2.01,0.95 2.23,2.04 0.01,0.03 0.01,0.06 0.02,0.09 0.01,0.05 0.01,0.1 0.02,0.15 v 0 H 4.75 v 5.55 c 0,0.37 -0.08,0.72 -0.23,1.04 L 4.43,38.27 4.4,38.33 C 4.11,38.81 3.67,39.19 3.14,39.39 2.97,39.46 2.8,39.51 2.61,39.53 2.6,39.53 2.5,39.54 2.45,39.55 V 21.09 Z"
   id="path54" />
</g>
</svg>
